<svg xmlns="http://www.w3.org/2000/svg" width="238.344" height="110.127" viewBox="0 0 238.344 110.127"><path d="M35.19,74.758c-1.819,0-3.307.279-3.307-2.176l-.027-1.844,5.007-1.008c0,1.38.319,5.028-1.673,5.028ZM129.2,30.036l1.461.451,2.882-9.91Zm-21.541.438,1.222-.425.212-.027-3.971-8.716,2.523,9.154Zm-9.748,6.142,2.2-1.791L79.44,13.625l18.473,23Zm40.6-2.03,1.926,1.91L158.8,13.572c-.624.425-4.343,4.365-5.06,5.174-1.62,1.857-3.373,3.529-5.14,5.28l-10.093,10.56ZM83.6,98.187c1.222.279,1.3.6,1.3,2.043v6.328c0,1.446-.08,1.764-1.3,2.043v1.141l2.417-.212.744-.04,2.417.226V108.6c-.558-.133-1.116-.106-1.116-.743V98.93c0-.637.558-.61,1.116-.743V97.046l-2.045.212a30.06,30.06,0,0,1-3.533-.186v1.114Zm34.25-69.743h2.722L119.334,0l-1.487,28.457ZM28.3,97.816c0,1.061,1.3-.053,1.3,1.672V107.3c0,.929-.438,1.234-1.3,1.3v1.154l3.161-.212.186-.04,2.417.226v-1.114c-.637-.053-1.3-.265-1.3-.929V99.129c0-.663.664-.876,1.3-.929V97.046l-3.347.226c-1.062.08-1.341-.186-2.417-.186v.743Zm131.064,0c0,1.167,1.3-.318,1.3,2.043V107.3c0,.929-.438,1.234-1.3,1.3v1.154l2.975-.226c1.116-.093,1.62.186,2.789.186V108.6c-.637-.053-1.3-.265-1.3-.929V99.487c0-.929.438-1.234,1.3-1.3V97.033l-3.347.226c-1.049.08-1.341-.186-2.417-.186v.743Zm78.939,9.671v-.743l-1.3-.186c-.624.942-.4,1.672-2.045,1.672h-.744c-.571,0-1.116-.172-1.116-.743V98.93c0-.637.691-.69,1.3-.743V97.033l-2.789.212-.558.04-2.417-.226v1.114c.558.133,1.116.106,1.116.743v8.929c0,.61-.531.69-1.116.743V109.7h8.752c.9,0,.359-1.34.93-2.229Zm-72.232-9.671c0,.61.531.69,1.116.743a61.853,61.853,0,0,0,2.364,5.824c.385.942,2.045,5.519,2.842,5.519h1.116c.027-.371,2.244-5.519,2.576-6.169.744-1.5,1.58-5.4,3.387-5.545V97.033l-2.975.226c-.717.066-.651-.172-1.487-.186v1.114c.412.04,1.3.172,1.3.557A31.413,31.413,0,0,1,173.332,106c-.292-.624-2.789-6.952-2.789-7.071,0-.637.558-.61,1.116-.743V97.046l-2.045.212-1.116.04-2.417-.226v.743ZM35,98.187c1.7.4,1.248,1.141,1.912,2.547.5,1.061.89,2,1.355,3.1.372.889,2.258,6.063,2.869,6.063h.744c.863,0,2.776-5.174,3.161-6.142.425-1.061.863-2.189,1.368-3.29a9.257,9.257,0,0,1,.784-1.632c.571-.8,1.2-.491,1.2-1.221,0-1.075-1.155-.305-1.859-.332l-2.6-.226v1.3h.744c.425,0,.558.133.558.557V99.1a30.227,30.227,0,0,1-2.975,6.7c-.252-.531-2.789-6.832-2.789-6.885,0-.637.558-.61,1.116-.743V97.033l-2.417.212-.744.04L35,97.059v1.114Zm55.472.371c-.226.332-.372.332-.372.743v.557h1.487c.173-.716.425-1.114,1.3-1.114h1.859V107.3c0,.942-.372,1.287-1.3,1.3v1.154l3.533-.226c1.062-.08,1.341.186,2.417.186V108.6h-.558c-.73,0-.93-.915-.93-1.672V98.744h2.231c.89,0,.412,1.114,1.3,1.114a2.753,2.753,0,0,0,.93-.186v-.557c0-1.075.837-2.415-.186-2.415h-.372c-.651,0-.279.371-.93.371H93.066c-.81,0-.677-.371-1.487-.371h-.372c-.837,0-.744,1.008-.744,1.857Zm114.3,1.3v1.857c0,1.924,5.219,3.542,5.219,4.643v.743c0,1.022-.969,1.486-1.859,1.486h-.372c-1.155,0-1.766-1.167-1.859-2.229h-1.3v3.317l3.533.226h1.116c1.7,0,3.9-1.791,3.9-3.157v-1.3c0-3.171-5.405-3.211-5.405-5.585v-.186a1.153,1.153,0,0,1,1.3-1.3h.372c1.58,0,1.567.61,1.859,1.857h.744c.305,0,.558-.106.558-.371,0-3.277-.332-2.972-3.719-2.972-1.992,0-4.09,1.114-4.09,2.972Zm-131.25.371v.371c0,3.715,5.392,4.338,5.392,5.771v.743c0,1.114-.757,1.486-1.859,1.486h-.744c-.8,0-1.328-1.34-1.487-2.043h-1.3l-.04.743.226,2.415a2.753,2.753,0,0,0,.93.186h3.533a3.889,3.889,0,0,0,3.9-4.086v-.557c0-2.919-5.392-3.025-5.392-5.4v-.186a1.153,1.153,0,0,1,1.3-1.3h.372a2.168,2.168,0,0,1,1.633.57l.239,1.3h.744c.292,0,.584-.119.6-.371l-.239-2.759L79.294,96.9h-.93c-2.5,0-4.834,1.1-4.834,3.343Zm42.816.186v.371c0,3.768,5.405,3.781,5.405,5.957v.557c0,.6-.943,1.3-1.673,1.3h-.93c-1.487,0-.837-2.229-2.045-2.229h-.186c-.425,0-.558.133-.558.557v2.759l2.789.212h1.673a4.072,4.072,0,0,0,4.09-3.9v-.743c0-2.507-5.392-3.516-5.392-5.028V99.3c0-.73.916-.929,1.673-.929h.372c1.78,0,.7,1.857,1.859,1.857h.372c1.009,0,.372-2.1.372-3.1l-3.533-.239c-2.125-.159-4.276,1.42-4.276,3.529Zm103.375.769.319-.027,1.235,3.3-2.815.013Zm-5.83,7.973v.557h3.9l-.013-1.075-1-.252.823-2.388h3.9c.717,0,1.248,1.764,1.3,2.415-.478.106-.93.159-.93.743v.584l2.417-.212.744-.04,2.417.226v-.743c0-.9-.6-.212-1.275-.968a5.542,5.542,0,0,1-.677-1.552c-.491-1.075-.863-2.07-1.368-3.1-.332-.677-2.616-5.917-2.643-6.288h-1.116c-.823,0-2.576,5.2-3.121,6.169s-.863,2.189-1.408,3.25c-.239.464-.491,1.26-.677,1.552-.5.836-1.315.2-1.315,1.114Zm-107.8-4.643c.027-.942.8-3.157,1.487-3.343l1.155,3.33-2.643.013Zm1.116-7.257c-.12,1.446-2.045,4.59-2.523,6.023-.465,1.38-.863,1.91-1.262,3.012-.438,1.181-.6,2.269-1.979,2.308v1.114h3.9v-.557c0-.624-.332-.544-.93-.557v-.557c0-.783.558-1.221.744-2.043h3.9c.584,0,1.116,1.592,1.116,2.229,0,.385-.385.345-.744.371v1.141l2.789-.212.372-.04,2.417.226V108.6c-1.833-.04-2.8-3.927-3.44-5.492-.372-.889-2.417-6.05-3.068-6.05h-.372a2.894,2.894,0,0,0-.93.186Zm73.162.929.93.186c.146.65.372.624.372,1.3v8c0,.677-.584.915-1.3.929v1.154l4.648-.226,1.116-.04,3.533.226c.027-1.022,1.142-3.157,0-3.157H189.3c-1.129,0-.305,1.672-2.231,1.672h-1.487a1.045,1.045,0,0,1-.93-.929v-3.343h2.789c.133.557.106,1.114.744,1.114h.372c.425,0,.558-.133.558-.557v-2.972h-1.487c-.013.876-.266,1.114-1.116,1.114h-1.859V98.386h1.673a2.753,2.753,0,0,1,.93.186c.053.6.319,1.486.93,1.486h.186c.425,0,.558-.133.558-.557V97.086h-8.566V98.2ZM49.307,97.816c0,1.008,1.3.239,1.3,1.3v8.557c0,.677-.584.915-1.3.929v1.114h9.5v-.743c0-.968.372-1.075.372-1.857,0-.425-.133-.557-.558-.557h-.372c-1.155,0-.08,1.672-2.417,1.672h-1.3c-.6,0-.93-.677-.93-1.3v-2.972h2.417c1.036,0,.08,1.114,1.116,1.114H57.5c.425,0,.558-.133.558-.557v-2.972H56.571c-.013.876-.266,1.114-1.116,1.114H53.6V98.572h2.6c.146.65.159,1.486.93,1.486h.186c.425,0,.558-.133.558-.557l.04-.756-.226-1.672h-8.38v.743Zm81.728.371c1.7.4,1.3.968,1.3,2.985,0,.57.146,3.41.266,4.02.438,2.415,1.315,4.723,4.024,4.723h2.045c2.643,0,3.533-2.388,3.944-4.8a18.557,18.557,0,0,0,.332-4.126c0-4.046,1.3-1.857,1.3-3.157v-.783l-2.231.226c-.956.106-2.231-.7-2.231.371V98.2c.571.133,1.487.265,1.487.929v5.2c0,1.9-.89,4.086-2.789,4.086-2.9,0-2.975-3.29-2.975-6.142V99.116c0-.968,1.487-.517,1.487-1.486s-1.262-.371-2.231-.371l-1.3.04-2.417-.226v1.114Zm-131.064,0,1.3.371v.557c0,4.511-.08,10.786,4.276,10.786H7.593c2.444,0,3.665-2.454,3.931-4.816a27.528,27.528,0,0,0,.359-4.113c0-4.046,1.3-1.857,1.3-3.157v-.8l-2.231.239a20.735,20.735,0,0,1-2.231-.186v.743c0,1.035,1.487.186,1.487,1.3v5.015c0,2.4-.7,4.272-3.161,4.272H6.863c-1.235,0-1.527-1.088-2.032-1.857l-.385-5.572V99.116c0-.663.93-.8,1.487-.929V97.033l-2.789.212-.744.04-2.417-.226v1.114Zm146.138,9.671c0,.663-.637.73-1.3.743v1.114h4.462V108.6c-.677-.013-1.487-.08-1.487-.743v-6.142c1.222.438,6.693,8,7.45,8H156.9v-10.6c0-.716.744-.915,1.487-.929V97.033l-2.6.226c-.81.08-.93-.186-1.859-.186v.743c0,.677.465.557,1.076.6l.412.332v6.514c-1.341-.9-6.826-8.186-7.636-8.186h-1.673Zm-131.064.371-1.3.371v1.114H18.2l-.013-1.048-1.474-.438.027-6.713,7.052,8.2H25.84V99.859c0-1.459.332-1.406,1.487-1.672V97.033l-2.045.226c-.744.093-1.434-.186-2.417-.186v.743c0,.677.465.557,1.076.6l.412.332v6.514c-1.3-.876-6.839-8.186-7.636-8.186H15.6c-.983,0-.558,4.126-.558,5.214v5.957Zm180.4-9.671h.93c1.142,0,1.673.889,1.673,2.043v.371c0,1.459-1.062,2.043-2.6,2.043V98.559Zm5.591,11.529h2.045l.664-.265-4.768-6.421a3.377,3.377,0,0,0,2.231-2.972c0-4.789-4.436-2.693-8.194-3.131l-2.045-.212V98.2c.637.053,1.3.265,1.3.929v8.557c0,.663-.664.876-1.3.929v1.167l2.975-.239c.85-.066,1.514.186,2.6.186v-1.114c-.558-.133-1.116-.106-1.116-.743v-3.529c1.288.027,2.032,2.162,2.6,2.985,1.288,1.844,1.541,1.539,2.975,2.786ZM64.393,98.559h.93c1.142,0,1.673.889,1.673,2.043v.186c0,1.672-.916,2.229-2.6,2.229Zm5.591,11.529h2.231l.5-.279L67.939,103.4c.81-.212,2.045-1.38,2.045-2.229V99.5c0-3.516-4.98-1.95-7.636-2.189l-2.417-.226V98.2c.558.053,1.3.371,1.3.929v8.186c0,.929-.438,1.234-1.3,1.3v1.154l3.161-.212a21.646,21.646,0,0,1,2.417.186v-1.114c-.558-.133-1.116-.106-1.116-.743v-3.529c1.288.027,2.032,2.162,2.6,2.985,1.235,1.764,1.594,1.579,2.988,2.786Zm-.266-53.571,6.175-.743L78.178,39.6l-6.229.013ZM59.9,58.387l7.118-1.353L64.978,39.6H57.142l2.776,18.786ZM36.85,64.33l7.45-2.043V39.6H36.85ZM23.264,68.974l8.38-2.574V39.787h-8.38v29.2ZM91.406,53.916l8.752-.371c0-4.444,4.967-10.666,7.583-12.882,3.267-2.773,8.831-5.9,14.755-5.9h.744c9,1.234,11.647,3.144,18.619,7.814-1.74-6.5-15.631-11.529-21.408-11.529h-.744c-7.875,0-14.954,2.746-18.951,6.554a34.222,34.222,0,0,0-5.883,6.952,27.6,27.6,0,0,0-3.466,9.38Zm64.41,1.672,8.008.929V46.288h1.3c3.307,0,3.9,2.653,3.9,5.957v.186a6.32,6.32,0,0,1-1.474,4.736l7.8,1.579c.372-1.579,1.487-3.038,1.487-5.386V50.573c0-6.487-4.024-10.972-10.425-10.972H155.8v16ZM190.252,50v1.114a14.138,14.138,0,0,0,3.054,8.292c1.394,1.9,4.7,4.166,5.7,5.652l11.713,3.4c0-4.245-3.546-7.4-6.361-10.229-1.846-1.857-7.025-5.333-7.025-8.411,0-2.043.77-3.715,2.789-3.715h.558c1.554,0,2.6,2.189,2.6,3.529v2.415h6.707v-3.9c0-3.622-4.011-8.371-7.636-8.371h-3.533c-4.369,0-8.566,5.439-8.566,10.229ZM67.913,64.7l.691-.013L68.311,67.3h-.133l-.252-2.6ZM27.182,69.544c-3.081.809-19.549,6.872-21.036,8.2l17.238-5.068.066.2v1.3c0,3.555,4.489,7.257,8.194,7.257H34.8c3.891,0,6.72-1.486,8.194-3.9A10.724,10.724,0,0,0,44.3,72.7c0-1,.013-1.99,0-2.985-.027-2.109.04-1.008,1.315-1.791l15.312-2.282,2.364,15.787,8.845-.013,2.51-17.472,1.846-.172,15.087-1.141c1.859,8.026,5.485,13.28,8.526,15.655,4.1,3.2,9.96,7.031,17.158,7.031h3.9c4.051,0,9.429-2.03,12.032-3.609,1.952-1.194,7.742-5.413,8.26-7.363-1.209.809-2.112,1.924-3.347,2.786a29.22,29.22,0,0,1-3.851,2.3,25.1,25.1,0,0,1-10.12,2.348c-6.454,0-13.041-2.534-16.242-5.718a27.154,27.154,0,0,1-5.06-5.93c-1.023-1.658-2.908-5.585-2.9-8.026,18.686-.292,34.5-.478,55.857,1.247l-.013.2V81.4h7.822V64.476l2.417.371L169.747,81.4h7.078L173.279,65.79a51.274,51.274,0,0,1,6.494.756c6.6.769,23.294,4.272,23.294,4.816v.186c0,1.924-.89,3.529-2.789,3.529-2.709,0-3.36-2.746-3.347-4.869l-7.078-1.26v2.6a12.808,12.808,0,0,0,2.656,7.018c1.514,1.791,3.6,2.839,6.839,2.839h2.789c.053,0,2.643-.9,2.882-1.022a7.511,7.511,0,0,0,2.377-1.725c1.049-1.061,2.935-3.317,2.935-5.254l.04-.7,11.647,3.25,5.817,1.738c-1.939-1.685-18.327-7.323-22.152-8.557A222.177,222.177,0,0,0,181,62.924c-23.838-4.736-47.2-6.063-71.369-6.063-6.521,0-12.8.491-18.805.929C68.988,59.4,48.2,63.985,27.168,69.518Z" transform="translate(0.03 0)" fill="#0f75bd" fill-rule="evenodd"/></svg>